# xmcd
#
# Track frame offsets: 
#        150
#        34168
#        55354
#        70455
#        84330
#        96492
#        105785
#        121156
#        142756
#        157842
#        170572
#        185292
#        201980
#        229632
#        240884
#        257757
#        274272
#        293739
#        309573
#
# Disc length: 4473 seconds
#
# Revision: 1
# Processed by: cddbd v1.5.2PL0 Copyright (c) Steve Scherf et al.
# Submitted via: ExactAudioCopy v0.99pb3
#
DISCID=fd117713
DTITLE=Various Artist - Music Maker Foundation Treasure Box - CD 1
DYEAR=2006
DGENRE=Blues
TTITLE0=Lee Gates - My Wife Left Me
TTITLE1=Adolphus Bell - Introduce the Band
TTITLE2=Beverly 'Guitar' Watkins - Baghdad Blues
TTITLE3=Abe Reid - Sweet Georgia Brown
TTITLE4=Precious Bryant - Precious Staggerin' Blues
TTITLE5=Sol - Ghost of Mr.Q
TTITLE6=Kever's Longhouse Singers - Pigeon Dance
TTITLE7=Cool John Ferguson - Chunk of Funk
TTITLE8=J.W. Warren - Careless Love
TTITLE9=Benton Flippen - Fiddler's Reel
TTITLE10=David Butler - Graveyard Blues
TTITLE11=Tad Walters - Slam' em Down
TTITLE12=Slewfoot and Carrie B. - Cowboy Song
TTITLE13=George Kiggs - Throw This Dog a Bone
TTITLE14=Mudcat - Cold and Rainy Day
TTITLE15=Macavine Hayes - Snatch that Thing
TTITLE16=Pura Fé - Wait Till You Come Back Again
TTITLE17=Sweet Betty - Everybody Needs Love
TTITLE18=W.C. Minger IV - Home on the Range
EXTD=Pinnacle Productions,LLC.2006
EXTT0=
EXTT1=
EXTT2=
EXTT3=
EXTT4=
EXTT5=
EXTT6=
EXTT7=
EXTT8=
EXTT9=
EXTT10=
EXTT11=
EXTT12=
EXTT13=
EXTT14=
EXTT15=
EXTT16=
EXTT17=
EXTT18=
PLAYORDER=
